<?xml version="1.0" encoding="utf-8"?><svg xmlns="http://www.w3.org/2000/svg" xmlns:xlink="http://www.w3.org/1999/xlink"><symbol fill="none" viewBox="0 0 109 76" id="advantages-1" xmlns="http://www.w3.org/2000/svg"><path d="M38.36 76h7.638V62.004h28.339V76h6.9V51.345H38.359V76zM12.321 36.535h-.41v.407h.41v7.649h-.328v.488h.328v9.358h3.204v-9.358h.246v-.488h-.246v-7.649h.328v-.407h-.328v-.65h.985V34.5h-.985v-.65H12.32v.65h-1.068v1.383h1.068v.651zm-4.025 9.358H4.6v8.544h3.696v-8.544zm42.795 3.011h.822v1.952h4.517V0h-4.517v.814h-.822V0h-.328v50.856h.328v-1.952zm0-47.846h.822v6.51h-.822v-6.51zm0 6.835h.822v6.51h-.822v-6.51zm0 6.835h.822v6.51h-.822v-6.51zm0 6.835h.822v6.51h-.822v-6.51zm0 6.835h.822v6.51h-.822v-6.51zm0 6.835h.822v6.51h-.822v-6.51zm0 6.836h.822v6.51h-.822v-6.51zM68.34 25.306c-.081-.407-2.3-.814-5.174-.814v-.65c.329-.163.493-.489.493-.896 0-.57-.493-.976-.986-.976-.575 0-1.068.488-1.068.976 0 .407.165.651.493.895v.57c-2.875 0-5.093.407-5.175.814v25.55H68.26V25.306h.082zm11.91.895c0-.407-2.3-.813-5.174-.813v-.651c.329-.163.493-.489.493-.895 0-.57-.493-.977-.986-.977s-.986.488-.986.977c0 .406.165.65.493.895v.65c-2.875 0-5.092.407-5.175.814v24.655h11.336V26.201z" fill="#B0935F"/><path d="M46.492 29.05H19.796V76h18.07V50.857h8.626V29.049zm-17.99 40.929h-5.667v-3.58h5.668v3.58zm0-6.673h-5.667v-3.58h5.668v3.58zm0-6.59h-5.667v-3.581h5.668v3.58zm0-6.673h-5.667V46.38h5.668v3.662zm0-6.672h-5.667v-3.58h5.668v3.58zm0-6.673h-5.667v-3.58h5.668v3.58zm7.476 33.28H30.31v-3.58h5.668v3.58zm0-6.672H30.31v-3.58h5.668v3.58zm0-6.59H30.31v-3.581h5.668v3.58zm0-6.673H30.31V46.38h5.668v3.662zm0-6.672H30.31v-3.58h5.668v3.58zm0-6.673H30.31v-3.58h5.668v3.58zm7.474 13.345h-5.667V46.38h5.667v3.662zm0-6.672h-5.667v-3.58h5.667v3.58zm0-6.673h-5.667v-3.58h5.667v3.58zm61.605 5.777h-3.696v19.122h3.696V42.475zM93.886 28.236c0-.407-2.3-.814-5.175-.814v-.651c.329-.163.493-.488.493-.895 0-.57-.493-.977-.985-.977a.994.994 0 00-.986.977c0 .407.164.65.493.895v.65c-2.875 0-5.093.408-5.175.815v33.443h11.335V28.236zM81.73 62.167V76h1.314v-7.486h5.914V76h1.971v-7.486h5.914V76h1.972v-7.486h5.996V76H109V62.167H81.73zM0 76h19.22V55.007H0V76zm3.45-19.285h12.32v.814H3.45v-.814zm0 2.197h12.32v.814H3.45v-.814zm0 2.116h12.32v.814H3.45v-.814zm0 2.197h12.32v.814H3.45v-.814zm0 2.116h12.32v.813H3.45v-.813z" fill="#B0935F"/></symbol><symbol fill="none" viewBox="0 0 60 76" id="advantages-2" xmlns="http://www.w3.org/2000/svg"><path d="M0 0v76h60V0H0zm53.23 68.89H6.77V7.11h46.46v61.78z" fill="#B0935F"/><path d="M15.642 41.187h28.95c1.167 0 2.334-.98 2.334-2.451 0-1.226-.934-2.452-2.334-2.452h-28.95c-1.167 0-2.334.98-2.334 2.452.233 1.47 1.167 2.451 2.334 2.451zm0-10.297h9.105c1.168 0 2.335-.98 2.335-2.451 0-1.226-.934-2.452-2.335-2.452h-9.105c-1.167 0-2.334.98-2.334 2.452.233 1.226 1.167 2.451 2.334 2.451zm0-10.542h9.105c1.168 0 2.335-.98 2.335-2.451 0-1.226-.934-2.452-2.335-2.452h-9.105c-1.167 0-2.334.98-2.334 2.452.233 1.47 1.167 2.451 2.334 2.451zm0 31.381h28.95c1.167 0 2.334-.98 2.334-2.452 0-1.225-.934-2.451-2.334-2.451h-28.95c-1.167 0-2.334.98-2.334 2.451.233 1.471 1.167 2.452 2.334 2.452zm0 10.542h28.95c1.167 0 2.334-.98 2.334-2.452 0-1.225-.934-2.451-2.334-2.451h-28.95c-1.167 0-2.334.98-2.334 2.451.233 1.471 1.167 2.452 2.334 2.452zm18.911-32.116c.467.49.934.735 1.634.735.7 0 1.167-.245 1.634-.735l2.568-2.697 2.568 2.697c.467.49.934.735 1.635.735.7 0 1.167-.245 1.634-.735a2.453 2.453 0 000-3.433l-1.868-1.96c1.168-1.227 2.101-2.698 2.101-4.659 0-3.432-2.568-6.129-5.836-6.129-3.269 0-5.837 2.697-5.837 6.13 0 1.96.934 3.677 2.101 4.657l-1.867 1.962c-1.168.98-1.168 2.451-.467 3.432z" fill="#B0935F"/></symbol><symbol fill="none" viewBox="0 0 80 76" id="advantages-3" xmlns="http://www.w3.org/2000/svg"><path d="M65.82 17.15c-3.596-.727-9.432-.256-16.588-6.223C44.065 6.63 39.148.321 39.148.321s-4.975 6.394-10.084 10.606c-7.003 5.796-12.991 5.496-16.589 6.223.02 4.512-3.157 35.477 14.523 49.655 4.822 3.87 12.112 8.853 12.15 8.853.038.021 7.328-4.983 12.15-8.853 17.68-14.178 14.484-45.143 14.523-49.655zm-5.3 12.489c-.038 4.17-.382 8.36-1.205 12.445-.823 4.106-2.124 8.148-4.133 11.719-2.258 4.02-5.3 6.886-8.801 9.516-1.818 1.369-3.655 2.673-5.492 3.977-.574.407-1.358 1.262-2.047 1.006-.498-.193-1.014-.685-1.473-1.006-.785-.556-1.589-1.112-2.373-1.668-2.01-1.454-4.056-2.886-5.97-4.512-6.257-5.239-9.395-13.579-10.6-22.004-.497-3.529-.708-7.1-.689-10.67 0-2.054.172-4.107.172-6.16 0-.17.115-.384.287-.406 1.665-.32 3.349-.428 5.013-.813a18.87 18.87 0 006.87-3.207c3.29-2.417 6.199-5.688 8.782-9.003a.344.344 0 01.536 0c2.621 3.379 5.625 6.693 8.974 9.153 2.104 1.518 4.42 2.587 6.869 3.143 1.588.364 3.214.45 4.821.748.192.043.268.193.268.343v.064c.038 2.416.21 4.875.192 7.335z" fill="#B0935F"/><path d="M39.129 76c-.038 0-.057 0-.096-.022-.153-.085-.478-.299-1.282-.855a234.61 234.61 0 01-3.042-2.138c-2.2-1.561-5.338-3.85-7.883-5.881-6.87-5.517-11.423-14.156-13.528-25.725-1.703-9.324-1.34-18.027-1.167-22.219a51.08 51.08 0 00.057-1.967c0-.171.096-.3.25-.32a38.7 38.7 0 012.219-.343c3.616-.47 8.572-1.133 14.235-5.817C33.925 6.566 38.862.213 38.92.15a.29.29 0 01.459 0c.057.064 4.955 6.33 10.026 10.563 5.74 4.77 10.62 5.368 14.178 5.817.823.107 1.607.192 2.296.342.134.022.249.171.249.321 0 .428.019 1.112.057 1.967.172 4.192.517 12.917-1.167 22.219-2.105 11.569-6.658 20.208-13.528 25.725-2.544 2.032-5.682 4.32-7.883 5.88-1.416 1.006-2.525 1.776-3.042 2.14-.804.555-1.129.769-1.282.855-.057 0-.096.02-.153.02.02 0 .02 0 0 0zM12.782 17.428c0 .428-.039 1.027-.058 1.732-.172 4.17-.517 12.83 1.167 22.069 2.067 11.398 6.544 19.909 13.28 25.319 4.438 3.571 10.963 8.062 11.977 8.725 1.014-.663 7.539-5.175 11.978-8.725 6.735-5.41 11.212-13.921 13.279-25.319 1.684-9.238 1.34-17.899 1.167-22.069-.02-.705-.057-1.283-.057-1.732a37.073 37.073 0 00-2.01-.278c-3.635-.449-8.59-1.069-14.465-5.945-4.496-3.742-8.859-9.088-9.892-10.371-1.033 1.283-5.434 6.693-9.892 10.371-5.798 4.79-10.85 5.453-14.523 5.945-.708.086-1.358.171-1.952.278zm26.347 51.237c-.115 0-.249-.021-.364-.064-.382-.15-.746-.428-1.11-.706-.152-.107-.286-.235-.42-.32-.766-.535-1.57-1.091-2.373-1.669l-.134-.106c-1.952-1.39-3.96-2.844-5.855-4.427-7.08-5.923-9.72-15.354-10.715-22.218-.478-3.336-.708-6.929-.708-10.714 0-1.005.038-2.031.077-3.015.038-1.026.076-2.096.076-3.144 0-.299.21-.684.536-.748a38.987 38.987 0 012.124-.32c.938-.13 1.932-.257 2.87-.493a18.85 18.85 0 006.773-3.165c2.813-2.074 5.587-4.918 8.726-8.938a.632.632 0 01.497-.235.63.63 0 01.497.235c3.196 4.084 6.028 6.971 8.917 9.088 2.085 1.518 4.362 2.566 6.754 3.1.88.193 1.78.322 2.64.429.709.085 1.455.192 2.163.32a.64.64 0 01.516.642v.085c0 1.155.039 2.31.077 3.443.038 1.283.096 2.61.076 3.914-.057 4.576-.44 8.66-1.205 12.51-.9 4.512-2.296 8.49-4.171 11.825-1.99 3.55-4.65 6.437-8.878 9.602a189.196 189.196 0 01-5.51 3.977c-.116.086-.25.193-.384.3-.401.384-.937.812-1.492.812zm.02-59.62c-.02 0-.04 0-.04.022-3.175 4.063-5.988 6.95-8.84 9.046-2.142 1.56-4.495 2.672-6.983 3.25-.976.235-1.97.363-2.927.492a38.42 38.42 0 00-2.105.32s-.038.065-.038.086c0 1.07-.039 2.139-.077 3.165a77.192 77.192 0 00-.076 2.994c-.02 3.742.23 7.313.688 10.606.957 6.736 3.56 15.996 10.486 21.791 1.856 1.561 3.865 2.994 5.816 4.384l.134.107c.804.577 1.589 1.133 2.354 1.668.153.107.287.214.459.342.325.257.65.513.957.62.382.15.918-.278 1.358-.642a4.09 4.09 0 01.421-.32c1.99-1.39 3.789-2.673 5.492-3.956 4.152-3.123 6.754-5.945 8.706-9.41 1.836-3.27 3.214-7.185 4.094-11.61.746-3.807 1.148-7.848 1.187-12.382.019-1.304-.039-2.609-.077-3.892-.038-1.133-.077-2.31-.077-3.485v-.064c0-.022 0-.022-.019-.022a36.97 36.97 0 00-2.143-.32 30.585 30.585 0 01-2.698-.428c-2.468-.556-4.821-1.625-6.964-3.187-2.928-2.138-5.817-5.068-9.032-9.195-.019.022-.038.022-.057.022zm23.515 58.722l13.183 4.213-1.34-7.977 4.899-5.966-13.184-4.212-3.558 13.942z" fill="#B0935F"/><path opacity=".3" d="M62.664 67.767l3.29.064c.996.022 1.876-.705 2.144-1.775l.133-.492-4.63-1.475-.937 3.678z" fill="#B0935F"/><path d="M76.192 72.664l-13.834-4.427L66.07 53.74l13.834 4.427-5.09 6.2 1.378 8.298zM63.01 67.853l12.533 3.998-1.282-7.634 4.707-5.73-12.533-4-3.425 13.366z" fill="#B0935F"/><path d="M66.012 68.387h-.038l-3.636-.064 1.034-4.063.497.15-.842 3.336 2.947.042h.038c.861 0 1.626-.641 1.875-1.582l.134-.492.498.15-.134.492c-.326 1.219-1.282 2.031-2.373 2.031zm-48.696-.534L4.19 72.258l1.244-7.977L.46 58.38l13.126-4.405 3.731 13.879z" fill="#B0935F"/><path opacity=".3" d="M17.316 67.853l-3.29.107c-.996.02-1.876-.685-2.163-1.754l-.134-.492 4.611-1.54.976 3.678z" fill="#B0935F"/><path d="M3.884 72.963l1.282-8.297L0 58.53l13.776-4.619 3.885 14.434-13.777 4.62zM.957 58.807l4.764 5.667-1.186 7.655 12.475-4.19-3.578-13.323L.957 58.807z" fill="#B0935F"/><path d="M68.155 65.907c-18.33-6.651-38.077-6.651-56.407 0a3825.61 3825.61 0 01-3.999-13.793c20.933-7.613 43.492-7.613 64.424 0-1.34 4.619-2.679 9.216-4.018 13.793z" fill="#B0935F"/><path d="M13.987 68.537c-1.072 0-2.047-.791-2.354-1.968l-.133-.491.497-.171.134.492c.249.94 1.033 1.582 1.913 1.54l2.947-.086-.9-3.315.498-.171 1.09 4.042-3.635.106c-.019.022-.038.022-.057.022z" fill="#B0935F"/><path d="M68.347 66.57l-.25-.086C59.01 63.19 49.538 61.5 39.972 61.5c-9.567 0-19.02 1.668-28.127 4.983l-.249.086-4.17-14.328.248-.086c10.447-3.785 21.315-5.71 32.298-5.71s21.85 1.925 32.298 5.71l.249.086-4.171 14.328zM39.97 60.924a82.382 82.382 0 0128.031 4.918l3.846-13.236C61.534 48.885 50.8 47.003 39.97 47.003c-10.83 0-21.564 1.882-31.896 5.602l3.846 13.237c9.088-3.271 18.521-4.918 28.05-4.918zm.192-35.669l1.837 4.64 4.515-.556-2.697 4.106 2.697 4.106L42 36.995l-1.837 4.64-1.837-4.64-4.515.556 2.678-4.106-2.678-4.106 4.515.556 1.837-4.64z" fill="#B0935F"/><path d="M40.162 41.85l-1.875-4.77-4.63.556 2.755-4.212-2.755-4.213 4.63.556 1.875-4.769 1.875 4.769 4.63-.556-2.755 4.213 2.755 4.212-4.63-.556-1.875 4.77zm-1.799-4.94l.02.064 1.76 4.469 1.78-4.534 4.4.535-2.621-3.999.038-.043 2.583-3.934-4.4.534-1.78-4.533-1.78 4.533-4.4-.534 2.621 3.999-.038.042-2.583 3.935 4.4-.535z" fill="#B0935F"/></symbol><symbol viewBox="0 0 10 18" id="arrow-next" xmlns="http://www.w3.org/2000/svg"><path d="M1.415 17.14L9.9 8.69 1.415.243 0 1.65l7.072 7.04L0 15.731l1.415 1.408z"/></symbol><symbol viewBox="0 0 10 18" id="arrow-prev" xmlns="http://www.w3.org/2000/svg"><path d="M8.485.242L0 8.69l8.485 8.449L9.9 15.73 2.828 8.69 9.9 1.65 8.485.242z"/></symbol><symbol viewBox="0 0 48 48" id="facebook" xmlns="http://www.w3.org/2000/svg"><path d="M24 0C10.745 0 0 10.745 0 24s10.745 24 24 24 24-10.745 24-24S37.255 0 24 0zm2.102 24.054v13.058h-5.403V24.054H18v-4.5h2.7v-2.701c0-3.671 1.523-5.854 5.853-5.854h3.605v4.5h-2.253c-1.686 0-1.797.629-1.797 1.802l-.006 2.253h4.082l-.478 4.5h-3.604z"/></symbol><symbol viewBox="0 0 48 48" id="instagram" xmlns="http://www.w3.org/2000/svg"><path class="gst0" d="M24 19.7c2.4 0 4.3 1.9 4.3 4.3s-1.9 4.3-4.3 4.3-4.3-1.9-4.3-4.3 1.9-4.3 4.3-4.3z"/><path fill-rule="evenodd" d="M22.9 13.4H24c3.4 0 3.8 0 5.2.1 1.2.1 1.9.3 2.4.4.6.2 1 .5 1.5 1 .4.4.7.9 1 1.5.2.5.4 1.1.4 2.4.1 1.3.1 1.8.1 5.2 0 3.4 0 3.8-.1 5.2-.1 1.2-.3 1.9-.4 2.4-.2.6-.5 1-1 1.5-.4.4-.9.7-1.5 1-.5.2-1.1.4-2.4.4-1.3.1-1.8.1-5.2.1-3.4 0-3.8 0-5.2-.1-1.2-.1-1.9-.3-2.4-.4-.6-.2-1-.5-1.5-1-.4-.4-.7-.9-1-1.5-.2-.5-.4-1.1-.4-2.4-.1-1.3-.1-1.8-.1-5.2 0-3.4 0-3.8.1-5.2.1-1.2.3-1.9.4-2.4.2-.6.5-1 1-1.5s.9-.7 1.5-1c.5-.2 1.1-.4 2.4-.4 1.2 0 1.7-.1 4.1-.1zm7.9 2.2c-.8 0-1.5.7-1.5 1.5s.7 1.5 1.5 1.5 1.5-.7 1.5-1.5c.1-.8-.6-1.5-1.5-1.5zm-13.4 8.3c0-3.6 2.9-6.6 6.6-6.6 3.6 0 6.6 2.9 6.6 6.6s-2.9 6.6-6.6 6.6c-3.6 0-6.6-2.9-6.6-6.6z"/><path d="M24 0C10.7 0 0 10.7 0 24s10.7 24 24 24 24-10.7 24-24S37.3 0 24 0zm-5.3 11.3c1.4-.1 1.8-.1 5.3-.1s3.9 0 5.3.1 2.3.3 3.1.6c.8.3 1.6.8 2.3 1.5.7.7 1.1 1.4 1.5 2.3.3.8.5 1.7.6 3.1.1 1.4.1 1.8.1 5.3s0 3.9-.1 5.3-.3 2.3-.6 3.1c-.3.8-.8 1.6-1.5 2.3-.7.7-1.4 1.2-2.3 1.5-.8.3-1.7.5-3.1.6-1.4.1-1.8.1-5.3.1s-3.9 0-5.3-.1-2.3-.3-3.1-.6c-.8-.3-1.6-.8-2.3-1.5-.7-.7-1.1-1.4-1.5-2.3-.3-.8-.5-1.7-.6-3.1-.1-1.4-.1-1.8-.1-5.3s0-3.9.1-5.3.3-2.3.6-3.1c.3-.8.8-1.6 1.5-2.3.7-.7 1.4-1.1 2.3-1.5.8-.3 1.8-.6 3.1-.6z"/></symbol><symbol viewBox="0 0 24 24" id="phone" xmlns="http://www.w3.org/2000/svg"><path d="M15.05 5A5 5 0 0119 8.95M15.05 1A9 9 0 0123 8.94m-1 7.98v3a1.998 1.998 0 01-2.18 2 19.791 19.791 0 01-8.63-3.07 19.5 19.5 0 01-6-6 19.79 19.79 0 01-3.07-8.67A2 2 0 014.11 2h3a2 2 0 012 1.72c.127.96.362 1.903.7 2.81a2 2 0 01-.45 2.11L8.09 9.91a16.001 16.001 0 006 6l1.27-1.27a2 2 0 012.11-.45c.908.339 1.85.573 2.81.7A2 2 0 0122 16.92z" fill="none" stroke="#B0935F" stroke-width="2" stroke-linecap="round" stroke-linejoin="round"/></symbol><symbol viewBox="0 0 18 23" id="pin" xmlns="http://www.w3.org/2000/svg"><path fill="#B0935F" d="M9 0C6.613 0 4.324.97 2.636 2.695A9.305 9.305 0 000 9.2c0 6.21 7.931 13.225 8.269 13.524a1.11 1.11 0 001.462 0C10.125 22.424 18 15.41 18 9.2c0-2.44-.948-4.78-2.636-6.505A8.902 8.902 0 009 0zm0 20.297c-2.396-2.3-6.75-7.256-6.75-11.097 0-1.83.711-3.585 1.977-4.879A6.676 6.676 0 019 2.3c1.79 0 3.507.727 4.773 2.021A6.979 6.979 0 0115.75 9.2c0 3.841-4.354 8.809-6.75 11.097zM9 4.6c-.89 0-1.76.27-2.5.775A4.58 4.58 0 004.843 7.44a4.695 4.695 0 00-.257 2.657 4.633 4.633 0 001.232 2.356 4.47 4.47 0 002.304 1.259 4.409 4.409 0 002.6-.262 4.524 4.524 0 002.02-1.694A4.673 4.673 0 0013.5 9.2c0-1.22-.474-2.39-1.318-3.253A4.45 4.45 0 009 4.6zm0 6.9c-.445 0-.88-.135-1.25-.388a2.29 2.29 0 01-.829-1.032 2.347 2.347 0 01-.128-1.329c.087-.446.301-.856.616-1.177a2.239 2.239 0 011.152-.63 2.205 2.205 0 011.3.131c.411.174.763.469 1.01.847a2.337 2.337 0 01-.28 2.904A2.226 2.226 0 019 11.5z"/></symbol><symbol viewBox="0 0 194 194" id="play" xmlns="http://www.w3.org/2000/svg"><path d="M97.01 194C43.457 193.941.059 150.547 0 97v-1.94C1.066 41.754 44.96-.699 98.277.01c53.318.707 96.069 44.31 95.721 97.625-.348 53.315-43.666 96.355-96.988 96.366zM77.608 53.35v87.3L135.814 97 77.608 53.35z"/></symbol><symbol viewBox="0 0 20 20" id="print" xmlns="http://www.w3.org/2000/svg"><path d="M5 8a1 1 0 100 2 1 1 0 000-2zm12-4h-1V1a1 1 0 00-1-1H5a1 1 0 00-1 1v3H3a3 3 0 00-3 3v6a3 3 0 003 3h1v3a1 1 0 001 1h10a1 1 0 001-1v-3h1a3 3 0 003-3V7a3 3 0 00-3-3zM6 2h8v2H6V2zm8 16H6v-4h8v4zm4-5a1 1 0 01-1 1h-1v-1a1 1 0 00-1-1H5a1 1 0 00-1 1v1H3a1 1 0 01-1-1V7a1 1 0 011-1h14a1 1 0 011 1v6z"/></symbol><symbol viewBox="0 0 48 48" id="telegram" xmlns="http://www.w3.org/2000/svg"><path d="M0 24c0 13.255 10.745 24 24 24s24-10.745 24-24S37.255 0 24 0 0 10.745 0 24zm19.6 11l.408-6.118 11.129-10.043c.488-.433-.107-.645-.755-.252l-13.735 8.665-5.932-1.851c-1.281-.393-1.29-1.273.287-1.906l23.118-8.914c1.056-.48 2.075.254 1.672 1.87l-3.937 18.552c-.275 1.319-1.071 1.634-2.175 1.025l-5.997-4.431L20.8 34.4l-.027.026c-.322.314-.59.574-1.173.574z"/></symbol><symbol viewBox="0 0 48 48" id="youtube" xmlns="http://www.w3.org/2000/svg"><path d="M24 0C10.745 0 0 10.745 0 24s10.745 24 24 24 24-10.745 24-24S37.255 0 24 0zm10.002 15.75a3.248 3.248 0 012.263 2.323c.535 2.05.535 6.327.535 6.327s0 4.277-.535 6.327a3.253 3.253 0 01-2.263 2.324C32.005 33.6 24 33.6 24 33.6s-8.005 0-10.002-.55a3.248 3.248 0 01-2.263-2.323C11.2 28.677 11.2 24.4 11.2 24.4s0-4.277.535-6.327a3.253 3.253 0 012.263-2.324C15.995 15.2 24 15.2 24 15.2s8.005 0 10.002.55z"/><path d="M21.6 28.8v-8l6.4 4-6.4 4z"/></symbol></svg>