<?xml version="1.0" standalone="no"?>
<!DOCTYPE svg PUBLIC "-//W3C//DTD SVG 20010904//EN"
 "http://www.w3.org/TR/2001/REC-SVG-20010904/DTD/svg10.dtd">
<svg version="1.0" xmlns="http://www.w3.org/2000/svg"
 width="126.000000pt" height="126.000000pt" viewBox="0 0 126.000000 126.000000"
 preserveAspectRatio="xMidYMid meet">
<metadata>
Created by potrace 1.11, written by Peter Selinger 2001-2013
</metadata>
<g transform="translate(0.000000,126.000000) scale(0.100000,-0.100000)"
fill="#000000" stroke="none">
<path d="M545 1180 l-70 -49 -96 0 c-60 -1 -101 -6 -112 -13 -9 -7 -28 -50
-42 -94 l-25 -82 -76 -52 c-64 -45 -75 -56 -72 -78 4 -36 28 -41 28 -5 0 22 9
34 45 57 25 15 48 27 50 24 2 -2 -9 -49 -25 -103 -16 -55 -30 -101 -30 -102 0
-1 7 0 14 3 8 3 29 47 46 97 49 144 45 140 173 227 l118 80 157 0 158 0 110
-84 110 -84 46 -123 c25 -67 47 -118 50 -113 3 5 -6 48 -20 97 -14 48 -22 90
-19 93 9 9 117 -77 117 -92 0 -8 5 -14 10 -14 18 0 10 30 -12 49 -13 10 -50
41 -84 69 -54 45 -62 56 -78 113 -38 132 -33 129 -153 129 -67 0 -74 2 -120
38 -59 47 -86 62 -110 61 -10 0 -49 -22 -88 -49z m144 -15 l44 -35 -98 0 -99
0 50 35 c27 19 51 35 54 35 3 0 25 -16 49 -35z m-295 -84 c-15 -16 -138 -100
-141 -97 -1 1 5 25 14 54 l17 52 60 0 c38 0 56 -4 50 -9z m574 -39 c8 -24 12
-46 9 -48 -5 -5 -127 85 -127 93 0 2 23 3 52 1 51 -3 52 -3 66 -46z"/>
<path d="M585 990 c-4 -6 9 -10 32 -10 28 0 34 3 23 10 -20 13 -47 13 -55 0z"/>
<path d="M540 952 c0 -23 34 -52 60 -52 26 0 60 29 60 52 0 5 -27 8 -60 8 -33
0 -60 -3 -60 -8z"/>
<path d="M590 870 c0 -5 9 -10 19 -10 11 0 23 5 26 10 4 6 -5 10 -19 10 -14 0
-26 -4 -26 -10z"/>
<path d="M555 841 c-104 -27 -174 -98 -199 -203 -6 -26 -4 -28 22 -28 24 0 29
6 41 44 53 181 342 178 388 -4 7 -28 15 -36 36 -38 31 -4 32 3 15 60 -15 52
-87 132 -137 151 -49 20 -127 28 -166 18z"/>
<path d="M558 733 c-40 -37 -77 -101 -78 -135 0 -10 15 -24 35 -34 19 -9 48
-32 65 -50 l30 -34 38 38 c21 21 53 44 71 51 28 12 32 18 26 40 -16 64 -96
161 -133 161 -7 0 -31 -17 -54 -37z m91 -60 c17 -21 31 -43 31 -49 0 -7 -16
-22 -35 -34 l-35 -22 -30 22 c-16 12 -30 29 -30 37 0 18 47 83 60 83 5 0 22
-17 39 -37z"/>
<path d="M110 588 c0 -2 11 -37 24 -78 15 -46 30 -76 40 -78 13 -3 12 6 -4 65
-27 92 -27 93 -45 93 -8 0 -15 -1 -15 -2z"/>
<path d="M356 581 c-3 -5 1 -32 10 -60 24 -81 92 -148 177 -172 26 -7 28 -6
25 18 -2 19 -15 33 -50 52 -48 26 -102 86 -92 102 7 13 74 -24 107 -59 16 -16
34 -49 41 -73 11 -36 18 -45 39 -47 24 -3 28 1 38 43 14 55 70 120 112 130 15
4 31 5 34 1 12 -12 -50 -78 -93 -99 -24 -11 -44 -26 -44 -33 0 -7 -3 -19 -6
-28 -5 -13 -1 -14 26 -6 86 25 153 89 180 173 18 56 9 69 -42 61 -66 -10 -122
-38 -167 -84 l-40 -41 -36 39 c-19 22 -57 49 -83 60 -56 23 -129 36 -136 23z"/>
<path d="M1092 533 c-12 -32 -24 -71 -28 -87 -11 -45 10 -24 31 31 10 26 24
57 32 68 17 25 17 45 -1 45 -7 0 -23 -25 -34 -57z"/>
<path d="M57 493 c-13 -12 -7 -33 8 -33 8 0 15 9 15 20 0 20 -11 26 -23 13z"/>
<path d="M1157 481 c3 -12 10 -21 15 -21 13 0 6 32 -9 37 -7 3 -9 -3 -6 -16z"/>
<path d="M176 381 c-4 -6 1 -35 12 -64 11 -28 25 -76 32 -105 18 -78 25 -82
141 -82 107 0 118 -3 188 -57 54 -40 82 -42 130 -4 63 49 73 52 175 45 70 -5
99 -4 110 6 9 6 27 51 42 98 14 48 35 104 45 125 15 29 16 37 6 37 -24 0 -49
-37 -58 -85 -5 -24 -18 -67 -30 -95 l-21 -50 -74 0 c-41 0 -74 3 -73 8 0 4 41
36 90 72 50 35 85 66 79 68 -12 4 -57 -23 -168 -100 l-67 -47 -128 6 -129 6
-96 68 c-53 38 -106 69 -116 69 -23 0 -29 6 74 -71 94 -71 92 -78 -19 -62
l-55 8 -18 60 c-9 33 -20 72 -23 86 -7 36 -40 76 -49 60z m479 -286 c-37 -31
-42 -30 -80 0 l-30 25 70 0 70 -1 -30 -24z"/>
</g>
</svg>
